<?xml version="1.0" standalone="no"?>
<!DOCTYPE svg PUBLIC "-//W3C//DTD SVG 20010904//EN"
 "http://www.w3.org/TR/2001/REC-SVG-20010904/DTD/svg10.dtd">
<svg version="1.0" xmlns="http://www.w3.org/2000/svg"
 width="386.000000pt" height="328.000000pt" viewBox="0 0 386.000000 328.000000"
 preserveAspectRatio="xMidYMid meet">
<metadata>
Created by potrace 1.15, written by Peter Selinger 2001-2017
</metadata>
<g transform="translate(0.000000,328.000000) scale(0.100000,-0.100000)"
fill="#000000" stroke="none">
<path d="M1544 3161 c-82 -37 -154 -127 -154 -192 0 -14 40 -184 89 -377 96
-380 99 -402 48 -437 -33 -23 -91 -19 -123 9 -25 21 -36 56 -104 327 -55 220
-81 305 -92 307 -8 2 -55 -24 -104 -56 -367 -243 -601 -611 -674 -1061 -13
-80 -34 -111 -75 -111 -90 0 -177 -46 -211 -111 -34 -67 -4 -188 59 -233 28
-21 31 -21 1715 -24 928 -1 1702 0 1720 3 40 7 101 59 118 102 31 72 4 169
-59 217 -24 19 -58 31 -113 40 -49 9 -82 20 -90 31 -7 9 -18 49 -24 88 -57
356 -197 628 -450 877 -127 125 -318 257 -339 234 -4 -5 -34 -112 -66 -238
-102 -405 -107 -416 -191 -416 -35 0 -47 5 -68 31 -14 17 -26 43 -26 58 0 15
37 169 81 342 113 438 106 395 78 454 -13 27 -40 66 -60 86 -66 66 -88 69
-488 69 -325 0 -360 -2 -397 -19z"/>
<path d="M324 1034 c-11 -41 3 -178 27 -265 17 -62 25 -79 39 -79 21 0 78 54
89 84 4 12 6 81 3 154 l-4 132 -74 0 c-71 0 -74 -1 -80 -26z"/>
<path d="M618 1018 c-2 -69 3 -142 12 -151 4 -5 75 14 157 42 83 28 206 64
274 80 106 25 162 35 349 64 14 3 -158 5 -382 6 l-408 1 -2 -42z"/>
<path d="M2530 1044 c198 -31 418 -87 587 -150 52 -20 101 -33 109 -30 11 4
14 28 14 101 l0 95 -402 -1 c-391 -1 -400 -1 -308 -15z"/>
<path d="M3377 943 c-3 -65 -9 -128 -13 -141 -5 -19 2 -31 42 -68 27 -24 56
-43 64 -42 25 5 59 158 59 271 l1 97 -74 0 -73 0 -6 -117z"/>
<path d="M1755 944 c-22 -2 -96 -9 -165 -14 -152 -13 -356 -44 -469 -71 -215
-50 -445 -129 -455 -155 -8 -22 48 -151 97 -226 82 -122 199 -229 314 -287 23
-11 80 -32 126 -45 73 -21 109 -25 246 -27 l160 -2 116 111 c139 133 180 154
248 128 28 -11 76 -50 147 -120 98 -97 109 -104 161 -115 70 -15 298 0 379 24
142 43 299 152 390 273 56 74 140 235 140 270 0 30 -26 44 -165 92 -197 68
-411 114 -670 145 -124 15 -515 27 -600 19z"/>
<path d="M502 600 c-65 -40 -58 -89 21 -154 43 -35 115 -72 124 -63 4 5 -103
237 -109 237 -2 0 -18 -9 -36 -20z"/>
<path d="M3300 588 c-33 -54 -94 -198 -86 -205 19 -19 167 94 181 138 7 22
-17 61 -51 84 -23 15 -25 14 -44 -17z"/>
</g>
</svg>
